<?xml version="1.0" encoding="UTF-8"?><svg xmlns="http://www.w3.org/2000/svg" xmlns:xlink="http://www.w3.org/1999/xlink" viewBox="0 0 282.87 81.19"><defs><style>.f{fill:#009444;}.g{fill:#283a4b;}.h{fill:#05703a;}.i{fill:#39b54a;}.j{fill:url(#e);}.k{fill:#202821;}.l{fill:#f9ed32;}</style><linearGradient id="e" x1="0" y1="15.23" x2="70.72" y2="15.23" gradientTransform="matrix(1, 0, 0, 1, 0, 0)" gradientUnits="userSpaceOnUse"><stop offset="0" stop-color="#ffc40c"/><stop offset="1" stop-color="#f15f22"/></linearGradient></defs><g id="a"/><g id="b"><g id="c"><g id="d"><g><path class="g" d="M79.04,35.3c-.84,1.11-1.68,2.23-2.5,3.36-3.99,5.43-7.78,11.01-11.37,16.73-4.26,6.78-8.24,13.75-11.91,20.9-.35,.67-.69,1.34-1.03,2.02-1.62,3.21-5.9,3.88-8.43,1.34-1.8-1.8-3.58-3.63-5.33-5.49,.55-2.23,1.26-4.42,2.11-6.57,1.52-3.86,3.47-7.49,5.83-10.85,1.51-2.16,3.19-4.21,5.03-6.15,2.4-2.52,5.01-4.77,7.82-6.75,2.7-1.9,5.58-3.55,8.63-4.92,2.37-1.07,4.81-1.96,7.28-2.66,1.28-.36,2.57-.68,3.87-.94Z"/><path class="f" d="M94.21,16.85c-.17,.24-.35,.47-.55,.7-5.11,5.71-9.98,11.64-14.61,17.75-1.3,.26-2.6,.58-3.87,.94-2.48,.7-4.91,1.59-7.28,2.66-3.04,1.37-5.93,3.02-8.63,4.92-2.81,1.98-5.42,4.23-7.82,6.75-1.84,1.93-3.52,3.98-5.03,6.15-2.36,3.36-4.31,6.99-5.83,10.85-.85,2.15-1.55,4.35-2.11,6.57-2.23-2.36-4.42-4.75-6.56-7.18-2.31-2.61-4.56-5.27-6.77-7.97,.26-.6,.52-1.19,.8-1.78,2.6-5.58,5.9-10.76,9.87-15.47,.94-1.12,1.92-2.21,2.93-3.28,3.06-3.21,6.38-6.1,9.94-8.65,3.74-2.69,7.75-5,11.99-6.91,1.29-.58,2.59-1.12,3.9-1.62,7.44-2.84,15.26-4.38,23.3-4.57,2.13-.05,4.25,0,6.35,.13Z"/><path class="i" d="M94.21,16.85c-2.1-.14-4.22-.18-6.35-.13-8.04,.19-15.85,1.73-23.3,4.57-1.31,.5-2.61,1.04-3.9,1.62-4.24,1.92-8.25,4.23-11.99,6.91-3.56,2.55-6.88,5.44-9.94,8.65-1.01,1.07-1.99,2.16-2.93,3.28-3.97,4.71-7.27,9.89-9.87,15.47-.27,.59-.54,1.18-.8,1.78-3.03-3.7-5.97-7.48-8.81-11.34h0c-1.02-1.39-2.03-2.79-3.03-4.19,2.61-4.6,5.64-8.94,9.06-13.01,1.17-1.4,2.4-2.76,3.66-4.09,2.88-3.03,5.95-5.83,9.2-8.39,4.9-3.87,10.2-7.2,15.85-9.96,.78-.38,1.57-.75,2.36-1.11,5.59-2.53,11.37-4.44,17.29-5.74,6.93,1.04,13.65,2.77,20.07,5.1,4.38,1.59,5.98,6.86,3.42,10.57Z"/><path class="l" d="M22.36,30.46c-3.42,4.07-6.45,8.41-9.06,13.01-4.25-6-8.28-12.18-12.06-18.52C.49,23.72,.1,22.37,.01,21.02c3.4,.78,6.75,1.82,10.03,3.12,4.33,1.71,8.44,3.82,12.31,6.32Z"/><path class="j" d="M70.72,1.17c-5.92,1.3-11.7,3.22-17.29,5.75-.79,.35-1.58,.72-2.36,1.11-5.65,2.76-10.95,6.08-15.85,9.95-3.25,2.56-6.32,5.36-9.2,8.39-1.27,1.32-2.49,2.69-3.66,4.09-3.87-2.5-7.98-4.61-12.31-6.32-3.28-1.29-6.63-2.33-10.03-3.12-.2-3.28,1.46-6.56,4.54-8.24,3.61-1.96,7.33-3.72,11.18-5.26C23.79,4.29,32.34,2.03,41.25,.88c3.64-.46,7.34-.76,11.08-.84,6.26-.16,12.4,.24,18.38,1.14Z"/></g><g><path class="g" d="M114.94,50.75l-7.77-24.06h6.74l4.67,16.57,4.71-16.57h6.74l-7.77,24.06h-7.32Z"/><path class="g" d="M136.16,31.17c-.65,.65-1.43,.98-2.32,.98s-1.67-.33-2.32-.98c-.65-.65-.98-1.43-.98-2.32s.33-1.66,.98-2.3c.65-.64,1.43-.96,2.32-.96s1.67,.32,2.32,.96c.65,.64,.98,1.41,.98,2.3s-.33,1.67-.98,2.32Zm-5.17,19.57v-17.19h5.71v17.19h-5.71Z"/><path class="g" d="M150.65,39.03h-3.57v4.98c0,.76,.27,1.23,.82,1.41,.55,.18,1.47,.24,2.75,.17v5.16c-3.41,.41-5.81,.1-7.2-.95-1.39-1.04-2.08-2.93-2.08-5.65v-5.12h-2.58v-5.47h2.58v-3.09l5.71-1.72v4.81h3.57v5.47Z"/><path class="g" d="M165.12,33.56h5.71v17.19h-5.71v-1.58c-1.17,1.38-2.8,2.06-4.88,2.06-2.29,0-4.21-.87-5.76-2.6-1.55-1.73-2.32-3.89-2.32-6.48s.77-4.75,2.32-6.48c1.55-1.73,3.46-2.59,5.76-2.59,2.08,0,3.71,.69,4.88,2.06v-1.58Zm-6.22,11.31c.67,.69,1.54,1.03,2.61,1.03s1.95-.34,2.61-1.03,1-1.59,1-2.71-.33-2.03-1-2.72c-.67-.69-1.54-1.03-2.61-1.03s-1.95,.34-2.61,1.03c-.67,.69-1,1.59-1,2.72s.33,2.03,1,2.71Z"/><path class="h" d="M186.4,33.56h5.64v16.5c0,1.38-.26,2.59-.77,3.66-.52,1.07-1.21,1.91-2.08,2.54-.87,.63-1.83,1.1-2.87,1.41-1.04,.31-2.15,.46-3.32,.46-1.9,0-3.6-.36-5.09-1.07s-2.61-1.75-3.37-3.13l4.74-2.75c.83,1.31,2.04,1.96,3.64,1.96,1.03,0,1.87-.26,2.51-.79s.96-1.29,.96-2.3v-1.65c-1.17,1.42-2.77,2.13-4.81,2.13-2.36,0-4.31-.85-5.86-2.54-1.55-1.7-2.32-3.76-2.32-6.19s.77-4.49,2.32-6.19,3.5-2.54,5.86-2.54c2.04,0,3.64,.71,4.81,2.13v-1.65Zm-6.27,10.81c.68,.68,1.55,1.01,2.63,1.01s1.95-.34,2.63-1.01c.67-.68,1.01-1.53,1.01-2.56s-.34-1.88-1.01-2.56c-.68-.68-1.55-1.01-2.63-1.01s-1.95,.34-2.63,1.01c-.68,.68-1.01,1.53-1.01,2.56s.34,1.88,1.01,2.56Z"/><path class="h" d="M201.04,36.76c.32-1.12,.96-1.99,1.92-2.61,.96-.62,2.04-.93,3.23-.93v6.32c-1.31-.21-2.49,.03-3.56,.72s-1.6,1.81-1.6,3.37v7.12h-5.71v-17.19h5.71v3.2Z"/><path class="h" d="M209.74,26.69h6.5l-2.44,5.16h-5.43l1.38-5.16Zm4.33,24.06v-17.19h-5.71v17.19h5.71Z"/><path class="h" d="M225.65,51.23c-2.61,0-4.79-.87-6.53-2.61-1.74-1.74-2.61-3.9-2.61-6.46s.87-4.72,2.61-6.46c1.74-1.74,3.92-2.61,6.53-2.61,1.7,0,3.24,.4,4.62,1.2,1.39,.8,2.46,1.88,3.21,3.23l-4.88,2.82c-.62-1.12-1.62-1.68-2.99-1.68-.96,0-1.76,.33-2.41,.98-.64,.65-.96,1.5-.96,2.53s.32,1.87,.96,2.53c.64,.65,1.44,.98,2.41,.98,1.42,0,2.42-.57,2.99-1.72l4.88,2.82c-.76,1.38-1.83,2.46-3.21,3.27-1.39,.8-2.93,1.2-4.62,1.2Z"/><path class="h" d="M243.32,51.23c-2.54,0-4.71-.88-6.5-2.63s-2.68-3.9-2.68-6.44,.89-4.69,2.68-6.44,3.95-2.63,6.5-2.63,4.74,.88,6.51,2.63c1.78,1.75,2.66,3.9,2.66,6.44s-.89,4.69-2.66,6.44c-1.78,1.75-3.95,2.63-6.51,2.63Zm0-5.5c1.01,0,1.84-.33,2.49-1,.65-.67,.98-1.52,.98-2.58s-.33-1.91-.98-2.58c-.65-.66-1.48-1-2.49-1s-1.8,.33-2.46,1c-.65,.67-.98,1.52-.98,2.58s.33,1.91,.98,2.58c.65,.66,1.47,1,2.46,1Z"/><path class="h" d="M255,50.75V25.66h5.71v25.09h-5.71Z"/><path class="h" d="M276.11,33.56h5.71v17.19h-5.71v-1.58c-1.17,1.38-2.8,2.06-4.88,2.06-2.29,0-4.21-.87-5.76-2.6-1.55-1.73-2.32-3.89-2.32-6.48s.77-4.75,2.32-6.48c1.55-1.73,3.46-2.59,5.76-2.59,2.08,0,3.71,.69,4.88,2.06v-1.58Zm-6.22,11.31c.67,.69,1.54,1.03,2.61,1.03s1.95-.34,2.61-1.03,1-1.59,1-2.71-.33-2.03-1-2.72c-.67-.69-1.54-1.03-2.61-1.03s-1.95,.34-2.61,1.03c-.67,.69-1,1.59-1,2.72s.33,2.03,1,2.71Z"/></g><g><path class="k" d="M115.67,61.84h6.36v1.03h-5.13v2.93h4.78v1.03h-4.78v3.18h5.17v1.03h-6.4v-9.21Z"/><path class="k" d="M124.17,68.94c.04,.98,.9,1.29,1.79,1.29,.68,0,1.61-.15,1.61-.99,0-1.71-4.36-.55-4.36-3.12,0-1.34,1.31-1.89,2.49-1.89,1.5,0,2.63,.46,2.73,2.09h-1.1c-.06-.85-.84-1.12-1.55-1.12-.66,0-1.42,.18-1.42,.85,0,.77,1.16,.93,2.18,1.16,1.1,.25,2.18,.62,2.18,1.9,0,1.6-1.48,2.1-2.84,2.1-1.5,0-2.76-.61-2.82-2.26h1.1Z"/><path class="k" d="M130.74,68.94c.04,.98,.9,1.29,1.79,1.29,.68,0,1.61-.15,1.61-.99,0-1.71-4.36-.55-4.36-3.12,0-1.34,1.32-1.89,2.49-1.89,1.5,0,2.63,.46,2.73,2.09h-1.1c-.06-.85-.84-1.12-1.55-1.12-.66,0-1.42,.18-1.42,.85,0,.77,1.16,.93,2.18,1.16,1.1,.25,2.18,.62,2.18,1.9,0,1.6-1.48,2.1-2.84,2.1-1.5,0-2.76-.61-2.82-2.26h1.1Z"/><path class="k" d="M142.33,68.93c-.3,1.48-1.34,2.27-2.85,2.27-2.13,0-3.13-1.48-3.2-3.51,0-2.01,1.31-3.47,3.13-3.47,2.36,0,3.08,2.2,3.02,3.82h-4.99c-.04,1.16,.62,2.19,2.08,2.19,.92,0,1.53-.43,1.73-1.3h1.08Zm-1.06-1.86c-.06-1.04-.83-1.88-1.92-1.88s-1.84,.85-1.91,1.88h3.83Z"/><path class="k" d="M143.69,64.38h1.03v1.06h.03c.46-.83,1.2-1.21,2.17-1.21,1.75,0,2.29,1,2.29,2.44v4.38h-1.1v-4.51c0-.83-.52-1.34-1.35-1.34-1.33,0-1.97,.89-1.97,2.09v3.76h-1.1v-6.67Z"/><path class="k" d="M155.51,66.52c-.17-.84-.73-1.33-1.65-1.33-1.59,0-2.08,1.26-2.08,2.6,0,1.24,.55,2.44,1.95,2.44,1.07,0,1.69-.61,1.83-1.62h1.12c-.25,1.64-1.25,2.59-2.94,2.59-2.04,0-3.12-1.41-3.12-3.4s1.03-3.57,3.15-3.57c1.52,0,2.71,.71,2.88,2.29h-1.13Z"/><path class="k" d="M159.2,63.18h-1.1v-1.34h1.1v1.34Zm-1.1,1.2h1.1v6.67h-1.1v-6.67Z"/><path class="k" d="M166.93,71.02c-.19,.12-.46,.18-.79,.18-.57,0-.93-.31-.93-1.03-.61,.72-1.42,1.03-2.35,1.03-1.21,0-2.21-.53-2.21-1.87,0-1.51,1.12-1.84,2.26-2.05,1.2-.25,2.24-.14,2.24-.98,0-.97-.8-1.11-1.48-1.11-.93,0-1.61,.28-1.66,1.26h-1.1c.06-1.65,1.33-2.23,2.82-2.23,1.2,0,2.5,.27,2.5,1.83v3.43c0,.52,0,.75,.35,.75,.1,0,.22-.03,.33-.06v.85Zm-1.78-3.42c-.85,.63-3.33,.01-3.33,1.65,0,.72,.62,.98,1.29,.98,1.44,0,2.04-.89,2.04-1.51v-1.12Z"/><path class="k" d="M168.14,61.84h1.1v9.21h-1.1v-9.21Z"/><path class="k" d="M174.82,64.38h1.1v.9h.03c.36-.73,1.2-1.06,2.13-1.06,2.05,0,3.07,1.62,3.07,3.51s-1.01,3.47-3.04,3.47c-.67,0-1.68-.26-2.15-1.04h-.03v3.44h-1.1v-9.22Zm3.09,.81c-1.48,0-2.04,1.28-2.04,2.51,0,1.3,.59,2.53,2.1,2.53s2-1.28,2-2.58-.64-2.46-2.06-2.46Z"/><path class="k" d="M188.46,71.02c-.19,.12-.46,.18-.79,.18-.57,0-.93-.31-.93-1.03-.61,.72-1.42,1.03-2.35,1.03-1.21,0-2.21-.53-2.21-1.87,0-1.51,1.12-1.84,2.26-2.05,1.2-.25,2.24-.14,2.24-.98,0-.97-.8-1.11-1.48-1.11-.93,0-1.61,.28-1.66,1.26h-1.1c.06-1.65,1.33-2.23,2.82-2.23,1.2,0,2.5,.27,2.5,1.83v3.43c0,.52,0,.75,.35,.75,.1,0,.22-.03,.33-.06v.85Zm-1.78-3.42c-.85,.63-3.33,.01-3.33,1.65,0,.72,.62,.98,1.29,.98,1.44,0,2.04-.89,2.04-1.51v-1.12Z"/><path class="k" d="M189.57,64.38h1.03v1.41h.03c.53-1.08,1.26-1.6,2.45-1.56v1.16c-1.77,0-2.41,.99-2.41,2.69v2.97h-1.1v-6.67Z"/><path class="k" d="M199.93,71.02c-.19,.12-.46,.18-.79,.18-.57,0-.93-.31-.93-1.03-.61,.72-1.42,1.03-2.35,1.03-1.21,0-2.21-.53-2.21-1.87,0-1.51,1.12-1.84,2.26-2.05,1.2-.25,2.24-.14,2.24-.98,0-.97-.8-1.11-1.48-1.11-.93,0-1.61,.28-1.66,1.26h-1.1c.06-1.65,1.33-2.23,2.82-2.23,1.2,0,2.5,.27,2.5,1.83v3.43c0,.52,0,.75,.35,.75,.1,0,.22-.03,.33-.06v.85Zm-1.78-3.42c-.85,.63-3.33,.01-3.33,1.65,0,.72,.62,.98,1.29,.98,1.44,0,2.04-.89,2.04-1.51v-1.12Z"/><path class="k" d="M205.46,68.94c.04,.98,.9,1.29,1.79,1.29,.68,0,1.61-.15,1.61-.99,0-1.71-4.36-.55-4.36-3.12,0-1.34,1.31-1.89,2.49-1.89,1.5,0,2.63,.46,2.73,2.09h-1.1c-.06-.85-.84-1.12-1.55-1.12-.66,0-1.42,.18-1.42,.85,0,.77,1.16,.93,2.18,1.16,1.1,.25,2.18,.62,2.18,1.9,0,1.6-1.48,2.1-2.84,2.1-1.5,0-2.76-.61-2.82-2.26h1.1Z"/><path class="k" d="M217.05,68.93c-.3,1.48-1.34,2.27-2.85,2.27-2.13,0-3.13-1.48-3.2-3.51,0-2.01,1.32-3.47,3.13-3.47,2.36,0,3.08,2.2,3.02,3.82h-4.99c-.04,1.16,.62,2.19,2.08,2.19,.92,0,1.53-.43,1.73-1.3h1.08Zm-1.06-1.86c-.06-1.04-.83-1.88-1.92-1.88s-1.84,.85-1.91,1.88h3.83Z"/><path class="k" d="M223.93,71.04h-1.03v-1.06h-.03c-.46,.83-1.2,1.21-2.17,1.21-1.75,0-2.29-1-2.29-2.44v-4.38h1.1v4.51c0,.83,.52,1.34,1.35,1.34,1.33,0,1.97-.89,1.97-2.09v-3.76h1.1v6.67Z"/><path class="k" d="M229.38,64.38h1.03v1.41h.03c.53-1.08,1.26-1.6,2.45-1.56v1.16c-1.77,0-2.41,.99-2.41,2.69v2.97h-1.1v-6.67Z"/><path class="k" d="M239.53,68.93c-.3,1.48-1.34,2.27-2.85,2.27-2.13,0-3.13-1.48-3.2-3.51,0-2.01,1.32-3.47,3.13-3.47,2.36,0,3.08,2.2,3.02,3.82h-4.99c-.04,1.16,.62,2.19,2.08,2.19,.92,0,1.53-.43,1.73-1.3h1.08Zm-1.06-1.86c-.06-1.04-.83-1.88-1.92-1.88s-1.84,.85-1.91,1.88h3.83Z"/><path class="k" d="M241.56,68.94c.04,.98,.9,1.29,1.79,1.29,.68,0,1.61-.15,1.61-.99,0-1.71-4.36-.55-4.36-3.12,0-1.34,1.31-1.89,2.49-1.89,1.5,0,2.63,.46,2.73,2.09h-1.1c-.06-.85-.84-1.12-1.55-1.12-.66,0-1.42,.18-1.42,.85,0,.77,1.16,.93,2.18,1.16,1.1,.25,2.18,.62,2.18,1.9,0,1.6-1.48,2.1-2.84,2.1-1.5,0-2.76-.61-2.82-2.26h1.1Z"/><path class="k" d="M252.98,71.04h-1.03v-1.06h-.03c-.46,.83-1.2,1.21-2.17,1.21-1.75,0-2.29-1-2.29-2.44v-4.38h1.1v4.51c0,.83,.52,1.34,1.35,1.34,1.33,0,1.97-.89,1.97-2.09v-3.76h1.1v6.67Z"/><path class="k" d="M254.83,61.84h1.1v9.21h-1.1v-9.21Z"/><path class="k" d="M259.27,64.38h1.33v.97h-1.33v4.14c0,.52,.14,.59,.83,.59h.5v.97h-.84c-1.13,0-1.59-.23-1.59-1.46v-4.24h-1.13v-.97h1.13v-2h1.1v2Z"/><path class="k" d="M267.84,71.02c-.19,.12-.46,.18-.79,.18-.57,0-.93-.31-.93-1.03-.61,.72-1.42,1.03-2.35,1.03-1.21,0-2.21-.53-2.21-1.87,0-1.51,1.12-1.84,2.26-2.05,1.2-.25,2.24-.14,2.24-.98,0-.97-.8-1.11-1.48-1.11-.93,0-1.61,.28-1.66,1.26h-1.1c.06-1.65,1.33-2.23,2.82-2.23,1.2,0,2.5,.27,2.5,1.83v3.43c0,.52,0,.75,.35,.75,.1,0,.22-.03,.33-.06v.85Zm-1.78-3.42c-.85,.63-3.33,.01-3.33,1.65,0,.72,.62,.98,1.29,.98,1.44,0,2.04-.89,2.04-1.51v-1.12Z"/><path class="k" d="M274.95,71.04h-1.1v-.9h-.03c-.36,.73-1.2,1.06-2.13,1.06-2.05,0-3.07-1.62-3.07-3.51s1.01-3.47,3.04-3.47c.67,0,1.68,.26,2.15,1.04h.03v-3.43h1.1v9.21Zm-3.09-.81c1.48,0,2.04-1.28,2.04-2.51,0-1.3-.59-2.53-2.1-2.53s-2,1.28-2,2.58,.64,2.46,2.06,2.46Z"/><path class="k" d="M279.64,64.22c2.12,0,3.24,1.53,3.24,3.49s-1.12,3.48-3.24,3.48-3.24-1.53-3.24-3.48,1.12-3.49,3.24-3.49Zm0,6.01c1.15,0,2.08-.9,2.08-2.51s-.93-2.53-2.08-2.53-2.08,.92-2.08,2.53,.93,2.51,2.08,2.51Z"/></g></g></g></g></svg>