<?xml version="1.0" encoding="UTF-8"?><svg xmlns="http://www.w3.org/2000/svg" viewBox="0 0 285.01 85.54"><defs><style>.e{fill:#fff;}</style></defs><g id="a"/><g id="b"><g id="c"><g id="d"><g><g><path class="e" d="M117.07,53.04l-7.77-24.06h6.74l4.67,16.57,4.71-16.57h6.74l-7.77,24.06h-7.32Z"/><path class="e" d="M138.3,33.46c-.65,.65-1.43,.98-2.32,.98s-1.67-.33-2.32-.98c-.65-.65-.98-1.43-.98-2.32s.33-1.66,.98-2.3c.65-.64,1.43-.96,2.32-.96s1.67,.32,2.32,.96c.65,.64,.98,1.41,.98,2.3s-.33,1.67-.98,2.32Zm-5.17,19.58v-17.19h5.71v17.19h-5.71Z"/><path class="e" d="M152.79,41.32h-3.57v4.98c0,.76,.27,1.23,.82,1.41,.55,.18,1.47,.24,2.75,.17v5.16c-3.41,.41-5.81,.1-7.2-.95-1.39-1.04-2.08-2.93-2.08-5.65v-5.12h-2.58v-5.47h2.58v-3.09l5.71-1.72v4.81h3.57v5.47Z"/><path class="e" d="M167.26,35.85h5.71v17.19h-5.71v-1.58c-1.17,1.38-2.8,2.06-4.88,2.06-2.29,0-4.21-.87-5.76-2.6-1.55-1.73-2.32-3.89-2.32-6.48s.77-4.75,2.32-6.48c1.55-1.73,3.46-2.59,5.76-2.59,2.08,0,3.71,.69,4.88,2.06v-1.58Zm-6.22,11.31c.67,.69,1.54,1.03,2.61,1.03s1.95-.34,2.61-1.03,1-1.59,1-2.71-.33-2.03-1-2.72-1.54-1.03-2.61-1.03-1.95,.34-2.61,1.03-1,1.59-1,2.72,.33,2.03,1,2.71Z"/><path class="e" d="M188.53,35.85h5.64v16.5c0,1.38-.26,2.59-.77,3.66-.52,1.07-1.21,1.91-2.08,2.54-.87,.63-1.83,1.1-2.87,1.41-1.04,.31-2.15,.46-3.32,.46-1.9,0-3.6-.36-5.09-1.07s-2.61-1.75-3.37-3.13l4.74-2.75c.83,1.31,2.04,1.96,3.64,1.96,1.03,0,1.87-.26,2.51-.79s.96-1.29,.96-2.3v-1.65c-1.17,1.42-2.77,2.13-4.81,2.13-2.36,0-4.31-.85-5.86-2.54-1.55-1.7-2.32-3.76-2.32-6.19s.77-4.49,2.32-6.19c1.55-1.7,3.5-2.54,5.86-2.54,2.04,0,3.64,.71,4.81,2.13v-1.65Zm-6.27,10.81c.68,.68,1.55,1.01,2.63,1.01s1.95-.34,2.63-1.01c.67-.68,1.01-1.53,1.01-2.56s-.34-1.88-1.01-2.56c-.68-.67-1.55-1.01-2.63-1.01s-1.95,.34-2.63,1.01c-.68,.68-1.01,1.53-1.01,2.56s.34,1.88,1.01,2.56Z"/><path class="e" d="M203.17,39.05c.32-1.12,.96-1.99,1.92-2.61,.96-.62,2.04-.93,3.23-.93v6.33c-1.31-.21-2.49,.03-3.56,.72s-1.6,1.81-1.6,3.37v7.12h-5.71v-17.19h5.71v3.2Z"/><path class="e" d="M211.87,28.98h6.5l-2.44,5.16h-5.43l1.38-5.16Zm4.33,24.06v-17.19h-5.71v17.19h5.71Z"/><path class="e" d="M227.78,53.52c-2.61,0-4.79-.87-6.53-2.61-1.74-1.74-2.61-3.9-2.61-6.46s.87-4.72,2.61-6.46c1.74-1.74,3.92-2.61,6.53-2.61,1.7,0,3.24,.4,4.62,1.2,1.39,.8,2.46,1.88,3.21,3.23l-4.88,2.82c-.62-1.12-1.62-1.68-2.99-1.68-.96,0-1.76,.33-2.41,.98-.64,.65-.96,1.5-.96,2.53s.32,1.87,.96,2.53c.64,.65,1.44,.98,2.41,.98,1.42,0,2.42-.57,2.99-1.72l4.88,2.82c-.76,1.38-1.83,2.46-3.21,3.27-1.39,.8-2.93,1.2-4.62,1.2Z"/><path class="e" d="M245.45,53.52c-2.54,0-4.71-.88-6.5-2.63s-2.68-3.9-2.68-6.44,.89-4.69,2.68-6.45,3.95-2.63,6.5-2.63,4.74,.88,6.51,2.63c1.78,1.75,2.66,3.9,2.66,6.45s-.89,4.69-2.66,6.44c-1.78,1.75-3.95,2.63-6.51,2.63Zm0-5.5c1.01,0,1.84-.33,2.49-1,.65-.67,.98-1.52,.98-2.58s-.33-1.91-.98-2.58-1.48-1-2.49-1-1.8,.33-2.46,1c-.65,.67-.98,1.52-.98,2.58s.33,1.91,.98,2.58c.65,.66,1.47,1,2.46,1Z"/><path class="e" d="M257.14,53.04V27.95h5.71v25.09h-5.71Z"/><path class="e" d="M278.24,35.85h5.71v17.19h-5.71v-1.58c-1.17,1.38-2.8,2.06-4.88,2.06-2.29,0-4.21-.87-5.76-2.6-1.55-1.73-2.32-3.89-2.32-6.48s.77-4.75,2.32-6.48c1.55-1.73,3.46-2.59,5.76-2.59,2.08,0,3.71,.69,4.88,2.06v-1.58Zm-6.22,11.31c.67,.69,1.54,1.03,2.61,1.03s1.95-.34,2.61-1.03,1-1.59,1-2.71-.33-2.03-1-2.72-1.54-1.03-2.61-1.03-1.95,.34-2.61,1.03-1,1.59-1,2.72,.33,2.03,1,2.71Z"/></g><g><path class="e" d="M117.81,64.13h6.36v1.03h-5.13v2.93h4.78v1.03h-4.78v3.18h5.17v1.03h-6.39v-9.21Z"/><path class="e" d="M126.3,71.23c.04,.98,.9,1.29,1.79,1.29,.68,0,1.61-.15,1.61-.99,0-1.71-4.36-.55-4.36-3.12,0-1.34,1.31-1.89,2.49-1.89,1.5,0,2.63,.46,2.73,2.09h-1.1c-.06-.85-.84-1.12-1.55-1.12-.66,0-1.42,.18-1.42,.85,0,.77,1.16,.93,2.18,1.16,1.1,.25,2.18,.62,2.18,1.9,0,1.6-1.48,2.1-2.84,2.1-1.5,0-2.76-.61-2.82-2.26h1.1Z"/><path class="e" d="M132.87,71.23c.04,.98,.9,1.29,1.79,1.29,.68,0,1.61-.15,1.61-.99,0-1.71-4.36-.55-4.36-3.12,0-1.34,1.32-1.89,2.49-1.89,1.5,0,2.63,.46,2.73,2.09h-1.1c-.06-.85-.84-1.12-1.55-1.12-.66,0-1.42,.18-1.42,.85,0,.77,1.16,.93,2.18,1.16,1.1,.25,2.18,.62,2.18,1.9,0,1.6-1.48,2.1-2.84,2.1-1.5,0-2.76-.61-2.82-2.26h1.1Z"/><path class="e" d="M144.46,71.22c-.3,1.48-1.34,2.27-2.85,2.27-2.13,0-3.13-1.48-3.2-3.51,0-2.01,1.32-3.47,3.13-3.47,2.36,0,3.08,2.2,3.02,3.82h-4.99c-.04,1.16,.62,2.19,2.08,2.19,.92,0,1.53-.43,1.73-1.3h1.08Zm-1.06-1.86c-.06-1.04-.83-1.88-1.92-1.88s-1.84,.85-1.91,1.88h3.83Z"/><path class="e" d="M145.83,66.67h1.03v1.06h.03c.46-.83,1.2-1.21,2.17-1.21,1.75,0,2.29,1,2.29,2.44v4.38h-1.1v-4.51c0-.83-.52-1.34-1.35-1.34-1.33,0-1.97,.89-1.97,2.09v3.76h-1.1v-6.67Z"/><path class="e" d="M157.65,68.81c-.17-.84-.73-1.33-1.65-1.33-1.59,0-2.08,1.26-2.08,2.6,0,1.24,.55,2.44,1.95,2.44,1.07,0,1.69-.61,1.83-1.62h1.12c-.25,1.64-1.25,2.59-2.94,2.59-2.04,0-3.12-1.41-3.12-3.4s1.03-3.57,3.15-3.57c1.52,0,2.71,.71,2.88,2.29h-1.13Z"/><path class="e" d="M161.33,65.47h-1.1v-1.34h1.1v1.34Zm-1.1,1.2h1.1v6.67h-1.1v-6.67Z"/><path class="e" d="M169.07,73.31c-.19,.12-.46,.18-.79,.18-.57,0-.93-.31-.93-1.03-.61,.72-1.42,1.03-2.35,1.03-1.21,0-2.21-.53-2.21-1.87,0-1.51,1.12-1.84,2.26-2.05,1.2-.25,2.24-.14,2.24-.98,0-.97-.8-1.11-1.48-1.11-.93,0-1.61,.28-1.66,1.26h-1.1c.06-1.65,1.33-2.23,2.82-2.23,1.2,0,2.5,.27,2.5,1.83v3.43c0,.52,0,.75,.35,.75,.1,0,.22-.03,.33-.06v.85Zm-1.78-3.42c-.85,.63-3.33,.01-3.33,1.65,0,.72,.62,.98,1.29,.98,1.44,0,2.04-.89,2.04-1.51v-1.12Z"/><path class="e" d="M170.28,64.13h1.1v9.21h-1.1v-9.21Z"/><path class="e" d="M176.96,66.67h1.1v.9h.03c.36-.73,1.2-1.06,2.13-1.06,2.05,0,3.07,1.62,3.07,3.51s-1.01,3.47-3.04,3.47c-.67,0-1.68-.26-2.15-1.04h-.03v3.44h-1.1v-9.22Zm3.09,.81c-1.48,0-2.04,1.28-2.04,2.51,0,1.3,.59,2.53,2.1,2.53s2-1.28,2-2.58-.64-2.46-2.06-2.46Z"/><path class="e" d="M190.59,73.31c-.19,.12-.46,.18-.79,.18-.57,0-.93-.31-.93-1.03-.61,.72-1.42,1.03-2.35,1.03-1.21,0-2.21-.53-2.21-1.87,0-1.51,1.12-1.84,2.26-2.05,1.2-.25,2.24-.14,2.24-.98,0-.97-.8-1.11-1.48-1.11-.93,0-1.61,.28-1.66,1.26h-1.1c.06-1.65,1.33-2.23,2.82-2.23,1.2,0,2.5,.27,2.5,1.83v3.43c0,.52,0,.75,.35,.75,.1,0,.22-.03,.33-.06v.85Zm-1.78-3.42c-.85,.63-3.33,.01-3.33,1.65,0,.72,.62,.98,1.29,.98,1.44,0,2.04-.89,2.04-1.51v-1.12Z"/><path class="e" d="M191.7,66.67h1.03v1.41h.03c.53-1.08,1.26-1.6,2.45-1.56v1.16c-1.77,0-2.41,.99-2.41,2.69v2.97h-1.1v-6.67Z"/><path class="e" d="M202.06,73.31c-.19,.12-.46,.18-.79,.18-.57,0-.93-.31-.93-1.03-.61,.72-1.42,1.03-2.35,1.03-1.21,0-2.21-.53-2.21-1.87,0-1.51,1.12-1.84,2.26-2.05,1.2-.25,2.24-.14,2.24-.98,0-.97-.8-1.11-1.48-1.11-.93,0-1.61,.28-1.66,1.26h-1.1c.06-1.65,1.33-2.23,2.82-2.23,1.2,0,2.5,.27,2.5,1.83v3.43c0,.52,0,.75,.35,.75,.1,0,.22-.03,.33-.06v.85Zm-1.78-3.42c-.85,.63-3.33,.01-3.33,1.65,0,.72,.62,.98,1.29,.98,1.44,0,2.04-.89,2.04-1.51v-1.12Z"/><path class="e" d="M207.59,71.23c.04,.98,.9,1.29,1.79,1.29,.68,0,1.61-.15,1.61-.99,0-1.71-4.36-.55-4.36-3.12,0-1.34,1.31-1.89,2.49-1.89,1.5,0,2.63,.46,2.73,2.09h-1.1c-.06-.85-.84-1.12-1.55-1.12-.66,0-1.42,.18-1.42,.85,0,.77,1.16,.93,2.18,1.16,1.1,.25,2.18,.62,2.18,1.9,0,1.6-1.48,2.1-2.84,2.1-1.5,0-2.76-.61-2.82-2.26h1.1Z"/><path class="e" d="M219.18,71.22c-.3,1.48-1.34,2.27-2.85,2.27-2.13,0-3.13-1.48-3.2-3.51,0-2.01,1.32-3.47,3.13-3.47,2.36,0,3.08,2.2,3.02,3.82h-4.99c-.04,1.16,.62,2.19,2.08,2.19,.92,0,1.53-.43,1.73-1.3h1.08Zm-1.06-1.86c-.06-1.04-.83-1.88-1.92-1.88s-1.84,.85-1.91,1.88h3.83Z"/><path class="e" d="M226.06,73.34h-1.03v-1.06h-.03c-.46,.83-1.2,1.21-2.17,1.21-1.75,0-2.29-1-2.29-2.44v-4.38h1.1v4.51c0,.83,.52,1.34,1.35,1.34,1.33,0,1.97-.89,1.97-2.09v-3.76h1.1v6.67Z"/><path class="e" d="M231.51,66.67h1.03v1.41h.03c.53-1.08,1.26-1.6,2.45-1.56v1.16c-1.77,0-2.41,.99-2.41,2.69v2.97h-1.1v-6.67Z"/><path class="e" d="M241.66,71.22c-.3,1.48-1.34,2.27-2.85,2.27-2.13,0-3.13-1.48-3.2-3.51,0-2.01,1.32-3.47,3.13-3.47,2.36,0,3.08,2.2,3.02,3.82h-4.99c-.04,1.16,.62,2.19,2.08,2.19,.92,0,1.53-.43,1.73-1.3h1.08Zm-1.06-1.86c-.06-1.04-.83-1.88-1.92-1.88s-1.84,.85-1.91,1.88h3.83Z"/><path class="e" d="M243.7,71.23c.04,.98,.9,1.29,1.79,1.29,.68,0,1.61-.15,1.61-.99,0-1.71-4.36-.55-4.36-3.12,0-1.34,1.31-1.89,2.49-1.89,1.5,0,2.63,.46,2.73,2.09h-1.1c-.06-.85-.84-1.12-1.55-1.12-.66,0-1.42,.18-1.42,.85,0,.77,1.16,.93,2.18,1.16,1.1,.25,2.18,.62,2.18,1.9,0,1.6-1.48,2.1-2.84,2.1-1.5,0-2.76-.61-2.82-2.26h1.1Z"/><path class="e" d="M255.12,73.34h-1.03v-1.06h-.03c-.46,.83-1.2,1.21-2.17,1.21-1.75,0-2.29-1-2.29-2.44v-4.38h1.1v4.51c0,.83,.52,1.34,1.35,1.34,1.33,0,1.97-.89,1.97-2.09v-3.76h1.1v6.67Z"/><path class="e" d="M256.96,64.13h1.1v9.21h-1.1v-9.21Z"/><path class="e" d="M261.41,66.67h1.33v.97h-1.33v4.14c0,.52,.14,.59,.83,.59h.5v.97h-.84c-1.13,0-1.59-.23-1.59-1.46v-4.24h-1.13v-.97h1.13v-2h1.1v2Z"/><path class="e" d="M269.98,73.31c-.19,.12-.46,.18-.79,.18-.57,0-.93-.31-.93-1.03-.61,.72-1.42,1.03-2.35,1.03-1.21,0-2.21-.53-2.21-1.87,0-1.51,1.12-1.84,2.26-2.05,1.2-.25,2.24-.14,2.24-.98,0-.97-.8-1.11-1.48-1.11-.93,0-1.61,.28-1.66,1.26h-1.1c.06-1.65,1.33-2.23,2.82-2.23,1.2,0,2.5,.27,2.5,1.83v3.43c0,.52,0,.75,.35,.75,.1,0,.22-.03,.33-.06v.85Zm-1.78-3.42c-.85,.63-3.33,.01-3.33,1.65,0,.72,.62,.98,1.29,.98,1.44,0,2.04-.89,2.04-1.51v-1.12Z"/><path class="e" d="M277.08,73.34h-1.1v-.9h-.03c-.36,.73-1.2,1.06-2.13,1.06-2.05,0-3.07-1.62-3.07-3.51s1.01-3.47,3.04-3.47c.67,0,1.68,.26,2.15,1.04h.03v-3.43h1.1v9.21Zm-3.09-.81c1.48,0,2.04-1.28,2.04-2.51,0-1.3-.59-2.53-2.1-2.53s-2,1.28-2,2.58,.64,2.46,2.06,2.46Z"/><path class="e" d="M281.77,66.51c2.12,0,3.24,1.53,3.24,3.49s-1.12,3.48-3.24,3.48-3.24-1.53-3.24-3.48,1.12-3.49,3.24-3.49Zm0,6.01c1.15,0,2.08-.9,2.08-2.51s-.93-2.53-2.08-2.53-2.08,.92-2.08,2.53,.93,2.51,2.08,2.51Z"/></g><path class="e" d="M99.31,12.28c-.88-2.75-2.94-4.89-5.66-5.88-6.62-2.4-13.51-4.15-20.47-5.2h0c-5.3-.8-10.7-1.2-16.04-1.2-.9,0-1.81,0-2.71,.04-3.71,.09-7.51,.37-11.3,.86-8.95,1.16-17.7,3.44-26.03,6.77-3.88,1.56-7.72,3.36-11.4,5.36C2.52,14.77,.43,17.98,.05,21.52c-.05,.61-.06,1.22-.04,1.83,.11,1.72,.64,3.43,1.52,4.93,3.78,6.34,7.87,12.61,12.15,18.64,.86,1.22,1.73,2.43,2.62,3.63l1.09,1.49c2.64,3.55,5.39,7.08,8.2,10.52,2.2,2.69,4.49,5.39,6.82,8.03,2.17,2.45,4.39,4.89,6.6,7.22,1.77,1.88,3.58,3.74,5.36,5.53,1.42,1.42,3.3,2.2,5.29,2.2,2.85,0,5.41-1.57,6.68-4.11,.34-.67,.68-1.33,1.02-2,3.62-7.04,7.59-14.01,11.8-20.71,3.55-5.64,7.34-11.22,11.27-16.58,.82-1.12,1.65-2.22,2.48-3.33,4.56-6.02,9.43-11.95,14.48-17.6,.26-.29,.51-.6,.72-.92,1.63-2.35,2.06-5.28,1.18-8.03ZM6.75,15.02c3.6-1.96,7.32-3.71,11.17-5.25,8.05-3.23,16.59-5.49,25.49-6.64,3.63-.46,7.33-.76,11.07-.84,4.32-.11,8.59,.05,12.79,.46-4.27,1.2-8.46,2.74-12.53,4.58-.82,.36-1.62,.74-2.42,1.13-5.78,2.82-11.23,6.24-16.2,10.17-3.3,2.62-6.47,5.5-9.4,8.58-.89,.92-1.75,1.87-2.6,2.84-3.53-2.17-7.27-4.03-11.15-5.56-3.36-1.32-6.82-2.4-10.31-3.2l-.33-.08c.44-2.53,1.97-4.85,4.41-6.18Zm-3.33,12.16c-.74-1.24-1.13-2.58-1.22-3.93,3.4,.79,6.75,1.82,10.02,3.12,3.68,1.45,7.21,3.2,10.57,5.23-3.21,3.83-6.1,7.95-8.61,12.25-3.78-5.42-7.37-10.98-10.77-16.67Zm75.23,13.69c-3.98,5.43-7.77,11-11.36,16.71-4.26,6.77-8.23,13.73-11.9,20.87-.34,.67-.69,1.34-1.02,2.02-1.62,3.2-5.89,3.88-8.43,1.34-1.8-1.8-3.58-3.63-5.32-5.48,.55-2.22,1.25-4.41,2.1-6.57,1.52-3.86,3.47-7.48,5.83-10.84,1.51-2.16,3.18-4.21,5.02-6.14,2.4-2.52,5.01-4.77,7.82-6.75,2.7-1.9,5.58-3.54,8.62-4.91,2.37-1.07,4.8-1.96,7.27-2.67,1.28-.36,2.57-.67,3.87-.94-.84,1.11-1.67,2.23-2.5,3.35Zm17.1-21.09c-4.41,4.94-8.66,10.04-12.72,15.29l-2.28,.46c-1.34,.27-2.7,.6-4.02,.98-2.56,.73-5.1,1.66-7.55,2.77-3.15,1.42-6.16,3.13-8.96,5.11-2.9,2.04-5.63,4.4-8.11,7-1.9,1.99-3.66,4.13-5.22,6.37-2.44,3.48-4.48,7.27-6.05,11.26-.72,1.82-1.34,3.69-1.86,5.57-1.66-1.79-3.3-3.6-4.91-5.43-2.3-2.6-4.56-5.26-6.77-7.95,.26-.6,.52-1.19,.8-1.78,2.6-5.57,5.89-10.74,9.86-15.45,.94-1.12,1.92-2.21,2.93-3.28,3.06-3.2,6.38-6.09,9.94-8.64,3.73-2.69,7.74-4.99,11.97-6.91,1.29-.58,2.59-1.12,3.9-1.62,7.43-2.84,15.24-4.38,23.27-4.57,2.12-.05,4.24,0,6.35,.13-.16,.24-.35,.48-.55,.7Zm1.49-2.67l-.82-.05c-1.57-.11-3.16-.16-4.74-.16-.59,0-1.19,0-1.79,.02-8.24,.2-16.3,1.78-23.94,4.7-1.35,.52-2.7,1.07-4.01,1.67-4.34,1.96-8.48,4.35-12.32,7.1-3.65,2.61-7.08,5.6-10.22,8.89-1.04,1.09-2.05,2.23-3.01,3.37-4.06,4.84-7.48,10.19-10.14,15.91-.14,.29-.26,.57-.4,.86-2.52-3.13-4.97-6.32-7.36-9.56-1.02-1.39-2.02-2.78-3.03-4.18,2.61-4.59,5.64-8.93,9.06-13,1.17-1.39,2.4-2.76,3.66-4.09,2.88-3.02,5.94-5.82,9.19-8.38,4.89-3.87,10.19-7.19,15.83-9.94,.78-.38,1.57-.75,2.36-1.11,5.58-2.53,11.35-4.44,17.27-5.74,6.92,1.04,13.63,2.76,20.05,5.09,3.65,1.32,5.36,5.2,4.36,8.59Z"/></g></g></g></g></svg>